<svg xmlns="http://www.w3.org/2000/svg" xmlns:xlink="http://www.w3.org/1999/xlink" width="73" height="33" viewBox="0 0 73 33">
    <defs>
        <path id="a" d="M13.016 21.562a10.295 10.295 0 0 1-2.46-6.85c-.077-5.581 4.249-10.17 9.664-10.253 2.605.035 5.09 1.136 6.906 3.061a10.083 10.083 0 0 1 1.427 1.93 9.816 9.816 0 0 1 3.464-3.606 9.444 9.444 0 0 1 9.846 0 9.778 9.778 0 0 1 3.019 2.884 9.852 9.852 0 0 1 2.966-2.858 9.297 9.297 0 0 1 9.846 0c3.036 1.88 4.855 5.343 4.747 9.036.04 2.727-.957 5.358-2.77 7.314-1.813 1.956-4.293 3.078-6.895 3.118-2.07 0-3.63-.248-5.07-1.385v-3.735a7.193 7.193 0 0 0 5.07 1.634c1.693-.068 3.291-.837 4.442-2.14a6.876 6.876 0 0 0 1.694-4.806c.178-2.415-.951-4.73-2.923-5.995a5.917 5.917 0 0 0-6.427 0c-1.972 1.264-3.1 3.58-2.923 5.995v16.24c0 1.024-.792 1.854-1.77 1.854-.976 0-1.768-.83-1.768-1.853v-8.453c-.386.328-.8.628-1.238.894a9.444 9.444 0 0 1-9.846 0 9.816 9.816 0 0 1-3.464-3.606 10.083 10.083 0 0 1-1.43 1.933c-1.816 1.923-4.3 3.023-6.903 3.058a9.525 9.525 0 0 1-.87-.053v.053H9.73c-5.924 0-9.73-3.417-9.73-9.231V1.699C.014 1.222.215.772.558.453c.343-.32.798-.482 1.259-.449.461-.033.916.129 1.259.449.342.32.544.77.558 1.246v14.043c0 3.464 1.935 5.823 6.095 5.823l3.287-.003zM20.22 7.889a6.303 6.303 0 0 0-4.442 2.105 6.696 6.696 0 0 0-1.694 4.727 6.696 6.696 0 0 0 1.694 4.727 6.303 6.303 0 0 0 4.442 2.104 6.303 6.303 0 0 0 4.442-2.104 6.696 6.696 0 0 0 1.694-4.727 6.696 6.696 0 0 0-1.694-4.727 6.303 6.303 0 0 0-4.442-2.105zm16.679.009a6.309 6.309 0 0 0-4.443 2.1 6.676 6.676 0 0 0-1.694 4.718 6.676 6.676 0 0 0 1.694 4.718 6.309 6.309 0 0 0 4.443 2.1 6.309 6.309 0 0 0 4.442-2.1 6.676 6.676 0 0 0 1.694-4.718 6.676 6.676 0 0 0-1.694-4.718 6.309 6.309 0 0 0-4.442-2.1zm30.824-3.439v10.703h-1.926V6.375h-2.472l.62-1.916h3.778zm5.277 0v10.703h-1.926V6.375h-2.472l.62-1.916H73z"/>
    </defs>
    <g fill="none" fill-rule="evenodd">
        <mask id="b" fill="#fff">
            <use xlink:href="#a"/>
        </mask>
        <use fill="#FFF" fill-rule="nonzero" xlink:href="#a"/>
        <g fill="#00A9A7" mask="url(#b)">
            <path d="M0 0h78v33H0z"/>
        </g>
    </g>
</svg>
