<?xml version="1.0" encoding="UTF-8"?>
<svg width="334px" height="58px" viewBox="0 0 334 58" version="1.1" xmlns="http://www.w3.org/2000/svg" xmlns:xlink="http://www.w3.org/1999/xlink">
    <title>OPEN_ACC</title>
    <g id="OPEN_ACC" stroke="none" stroke-width="1" fill="none" fill-rule="evenodd">
        <g id="Group" transform="translate(0.000000, 16.000000)">
            <rect id="Rectangle" fill="#EDEDED" x="0" y="41" width="335" height="1"></rect>
            <g id="Group-2" transform="translate(321.000000, 13.000000) rotate(45.000000) translate(-321.000000, -13.000000) translate(312.000000, 4.000000)" fill="#001D49">
                <rect id="Rectangle" x="0" y="8" width="18" height="2"></rect>
                <rect id="Rectangle" transform="translate(9.000000, 9.000000) rotate(90.000000) translate(-9.000000, -9.000000) " x="0" y="8" width="18" height="2"></rect>
            </g>
            <path d="M3.17285156,19 L3.17285156,12.9697266 L9.04541016,12.9697266 L9.04541016,19 L10.6318359,19 L10.6318359,6.33642578 L9.04541016,6.33642578 L9.04541016,11.578125 L3.17285156,11.578125 L3.17285156,6.33642578 L1.58642578,6.33642578 L1.58642578,19 L3.17285156,19 Z M17.0332031,19.2504883 C18.4371745,19.2504883 19.5473633,18.6969401 20.3637695,17.5898438 C21.0255534,16.6992188 21.3564453,15.6385091 21.3564453,14.4077148 C21.3564453,13.4676107 21.2033691,12.6280111 20.8972168,11.888916 C20.5910645,11.149821 20.1534831,10.5668945 19.5844727,10.1401367 C18.8979492,9.63297526 18.0939128,9.37939453 17.1723633,9.37939453 C15.8797201,9.37939453 14.8128255,9.89583333 13.9716797,10.9287109 C13.2851562,11.7822266 12.9418945,12.8986003 12.9418945,14.277832 C12.9418945,15.5890299 13.2542318,16.7054036 13.8789062,17.6269531 C14.6210938,18.7093099 15.672526,19.2504883 17.0332031,19.2504883 Z M17.1445312,18.0444336 C16.742513,18.0444336 16.3590495,17.9470215 15.9941406,17.7521973 C15.6292318,17.557373 15.3447266,17.2960612 15.140625,16.9682617 C14.7386068,16.3188477 14.5375977,15.4189453 14.5375977,14.2685547 C14.5375977,13.1119792 14.754069,12.2244466 15.1870117,11.605957 C15.3972982,11.2967122 15.6787109,11.0493164 16.03125,10.8637695 C16.3837891,10.6782227 16.7486979,10.5854492 17.1259766,10.5854492 C17.5032552,10.5854492 17.8681641,10.6766764 18.2207031,10.8591309 C18.5732422,11.0415853 18.8639323,11.2874349 19.0927734,11.5966797 C19.5380859,12.2089844 19.7607422,13.1212565 19.7607422,14.3334961 C19.7607422,15.4900716 19.5288086,16.3977051 19.0649414,17.0563965 C18.6010742,17.7150879 17.9609375,18.0444336 17.1445312,18.0444336 Z M26.4589844,19 L28.3701172,12.0419922 L30.4667969,19 L31.6450195,19 L34.3447266,9.62988281 L33.1665039,9.62988281 L31.0605469,16.6435547 L28.9545898,9.62988281 L27.8876953,9.62988281 L25.9394531,16.6157227 L23.9077148,9.62988281 L22.4418945,9.62988281 L25.2529297,19 L26.4589844,19 Z M43.9375,19.2597656 C44.6735026,19.2597656 45.3136393,19.061849 45.8579102,18.6660156 C46.2042643,18.4186198 46.5506185,17.9949544 46.8969727,17.3950195 L46.8969727,17.3950195 L46.8969727,19 L48.2236328,19 L48.2236328,6.33642578 L46.7670898,6.33642578 L46.7670898,10.9101562 C46.3465169,10.3535156 45.9305827,9.95922852 45.5192871,9.72729492 C45.1079915,9.49536133 44.6054688,9.37939453 44.0117188,9.37939453 C42.9726562,9.37939453 42.128418,9.75048828 41.4790039,10.4926758 C40.6131185,11.488444 40.1801758,12.7903646 40.1801758,14.3984375 C40.1801758,16.0065104 40.6285807,17.280599 41.5253906,18.2207031 C42.1871745,18.9134115 42.9912109,19.2597656 43.9375,19.2597656 Z M44.1879883,18.0537109 C43.8230794,18.0537109 43.4767253,17.9593913 43.1489258,17.770752 C42.8211263,17.5821126 42.5644531,17.3331706 42.3789062,17.0239258 C41.976888,16.3250326 41.7758789,15.3849284 41.7758789,14.2036133 C41.7758789,13.090332 41.9985352,12.2012533 42.4438477,11.536377 C42.8891602,10.8715007 43.4860026,10.5390625 44.234375,10.5390625 C44.6116536,10.5390625 44.9812012,10.6271973 45.3430176,10.8034668 C45.704834,10.9797363 46.0001628,11.2163086 46.2290039,11.5131836 C46.5320638,11.9090169 46.7114258,12.4873047 46.7670898,13.2480469 L46.7670898,13.2480469 L46.7670898,15.1962891 C46.7299805,15.6601562 46.6634928,16.0266113 46.567627,16.2956543 C46.4717611,16.5646973 46.3094076,16.832194 46.0805664,17.0981445 C45.5548503,17.7351888 44.9239909,18.0537109 44.1879883,18.0537109 Z M54.5043945,19.2504883 C55.9083659,19.2504883 57.0185547,18.6969401 57.8349609,17.5898438 C58.4967448,16.6992188 58.8276367,15.6385091 58.8276367,14.4077148 C58.8276367,13.4676107 58.6745605,12.6280111 58.3684082,11.888916 C58.0622559,11.149821 57.6246745,10.5668945 57.0556641,10.1401367 C56.3691406,9.63297526 55.5651042,9.37939453 54.6435547,9.37939453 C53.3509115,9.37939453 52.2840169,9.89583333 51.4428711,10.9287109 C50.7563477,11.7822266 50.4130859,12.8986003 50.4130859,14.277832 C50.4130859,15.5890299 50.7254232,16.7054036 51.3500977,17.6269531 C52.0922852,18.7093099 53.1437174,19.2504883 54.5043945,19.2504883 Z M54.6157227,18.0444336 C54.2137044,18.0444336 53.8302409,17.9470215 53.465332,17.7521973 C53.1004232,17.557373 52.815918,17.2960612 52.6118164,16.9682617 C52.2097982,16.3188477 52.0087891,15.4189453 52.0087891,14.2685547 C52.0087891,13.1119792 52.2252604,12.2244466 52.6582031,11.605957 C52.8684896,11.2967122 53.1499023,11.0493164 53.5024414,10.8637695 C53.8549805,10.6782227 54.2198893,10.5854492 54.597168,10.5854492 C54.9744466,10.5854492 55.3393555,10.6766764 55.6918945,10.8591309 C56.0444336,11.0415853 56.3351237,11.2874349 56.5639648,11.5966797 C57.0092773,12.2089844 57.2319336,13.1212565 57.2319336,14.3334961 C57.2319336,15.4900716 57,16.3977051 56.5361328,17.0563965 C56.0722656,17.7150879 55.4321289,18.0444336 54.6157227,18.0444336 Z M64.5888672,19.2504883 C65.6526693,19.2504883 66.5742188,18.9226888 67.3535156,18.2670898 C67.6627604,18.0073242 67.9039714,17.750651 68.0771484,17.4970703 C68.2503255,17.2434896 68.4111328,16.9064128 68.5595703,16.4858398 L68.5595703,16.4858398 L67.2050781,16.2075195 C67.0071615,16.6590169 66.8154297,16.9868164 66.6298828,17.190918 C66.1227214,17.7599284 65.4733073,18.0444336 64.6816406,18.0444336 C64.1744792,18.0444336 63.6997884,17.9130046 63.2575684,17.6501465 C62.8153483,17.3872884 62.4890951,17.0424805 62.2788086,16.6157227 C62.0314128,16.1085612 61.9046224,15.3818359 61.8984375,14.4355469 L61.8984375,14.4355469 L68.7172852,14.4355469 C68.6925456,12.4563802 68.1575521,11.0493164 67.1123047,10.2143555 C66.4134115,9.65771484 65.5877279,9.37939453 64.6352539,9.37939453 C63.4477539,9.37939453 62.4519857,9.78759766 61.6479492,10.6040039 C60.7387695,11.5317383 60.2841797,12.7841797 60.2841797,14.3613281 C60.2841797,15.9570312 60.7449544,17.2063802 61.6665039,18.109375 C62.4396159,18.8701172 63.413737,19.2504883 64.5888672,19.2504883 Z M67.121582,13.359375 L61.9726562,13.359375 C62.0159505,12.9078776 62.0855306,12.5476074 62.1813965,12.2785645 C62.2772624,12.0095215 62.4303385,11.7420247 62.640625,11.4760742 C63.1601562,10.8204753 63.8343099,10.4926758 64.6630859,10.4926758 C65.4856771,10.4926758 66.1289062,10.8235677 66.5927734,11.4853516 C66.7845052,11.7636719 66.9174805,12.0358073 66.9916992,12.3017578 C67.065918,12.5677083 67.1092122,12.9202474 67.121582,13.359375 L67.121582,13.359375 Z M73.7919922,19.2504883 C75.0784505,19.2504883 76.089681,18.9165039 76.8256836,18.2485352 C77.3761393,17.7537435 77.6513672,17.129069 77.6513672,16.3745117 C77.6513672,15.4591471 77.2988281,14.754069 76.59375,14.2592773 C76.1731771,13.9624023 75.5701497,13.7428385 74.784668,13.6005859 L74.784668,13.6005859 L72.9570312,13.2758789 C71.9860026,13.1027018 71.5004883,12.6697591 71.5004883,11.9770508 C71.5004883,11.5564779 71.6844889,11.219401 72.0524902,10.9658203 C72.4204915,10.7122396 72.9075521,10.5854492 73.5136719,10.5854492 C74.2249349,10.5854492 74.8032227,10.7648112 75.2485352,11.1235352 C75.5021159,11.3276367 75.7185872,11.6368815 75.8979492,12.0512695 L75.8979492,12.0512695 L77.2246094,11.7636719 C76.7607422,10.1741536 75.5299479,9.37939453 73.5322266,9.37939453 C72.3818359,9.37939453 71.485026,9.67008464 70.8417969,10.2514648 C70.2851562,10.7586263 70.0068359,11.3894857 70.0068359,12.144043 C70.0068359,12.5275065 70.0887858,12.8924154 70.2526855,13.2387695 C70.4165853,13.5851237 70.6407878,13.8603516 70.925293,14.0644531 C71.3829753,14.3860677 71.9210612,14.6056315 72.5395508,14.7231445 L72.5395508,14.7231445 L74.515625,15.0942383 C75.5917969,15.2921549 76.1298828,15.7714844 76.1298828,16.5322266 C76.1298828,16.9404297 75.9597982,17.280599 75.6196289,17.5527344 C75.2114258,17.8867188 74.6424154,18.0537109 73.9125977,18.0537109 C72.9601237,18.0537109 72.1962891,17.8186849 71.6210938,17.3486328 C71.3489583,17.1197917 71.1479492,16.7641602 71.0180664,16.2817383 L71.0180664,16.2817383 L69.6264648,16.5693359 C69.8367513,17.2867839 70.1583659,17.8341471 70.5913086,18.2114258 C71.3953451,18.9041341 72.4622396,19.2504883 73.7919922,19.2504883 Z M87.3276367,19.2597656 C87.6863607,19.2597656 88.1471354,19.2226562 88.7099609,19.1484375 L88.7099609,19.1484375 L88.7099609,17.9980469 C88.2646484,18.0660807 87.8904622,18.1000977 87.5874023,18.1000977 C86.5792643,18.1000977 86.0751953,17.6176758 86.0751953,16.652832 L86.0751953,16.652832 L86.0751953,10.7709961 L88.171875,10.7709961 L88.171875,9.62988281 L86.0751953,9.62988281 L86.0751953,7.15283203 L84.7207031,7.28271484 L84.6557617,9.62988281 L82.9951172,9.62988281 L82.9951172,10.7709961 L84.6557617,10.7709961 L84.6557617,16.4116211 C84.6557617,18.3103841 85.5463867,19.2597656 87.3276367,19.2597656 Z M91.7714844,19 L91.7714844,13.953125 C91.7714844,12.8955078 92.0281576,12.0698242 92.5415039,11.4760742 C93.0672201,10.8761393 93.6795247,10.5761719 94.378418,10.5761719 C94.7433268,10.5761719 95.075765,10.6720378 95.3757324,10.8637695 C95.6756999,11.0555013 95.8875326,11.3059896 96.0112305,11.6152344 C96.1411133,11.936849 96.2060547,12.5027669 96.2060547,13.3129883 L96.2060547,13.3129883 L96.2060547,19 L97.6625977,19 L97.6625977,13.3129883 C97.6625977,12.5398763 97.6270345,11.9816895 97.5559082,11.6384277 C97.4847819,11.295166 97.3347982,10.9503581 97.105957,10.6040039 C96.5493164,9.78141276 95.7298177,9.37011719 94.6474609,9.37011719 C93.9176432,9.37011719 93.2929688,9.58349609 92.7734375,10.0102539 C92.4332682,10.300944 92.0992839,10.749349 91.7714844,11.3554688 L91.7714844,11.3554688 L91.7714844,6.33642578 L90.3149414,6.33642578 L90.3149414,19 L91.7714844,19 Z M104.156738,19.2504883 C105.22054,19.2504883 106.14209,18.9226888 106.921387,18.2670898 C107.230632,18.0073242 107.471842,17.750651 107.64502,17.4970703 C107.818197,17.2434896 107.979004,16.9064128 108.127441,16.4858398 L108.127441,16.4858398 L106.772949,16.2075195 C106.575033,16.6590169 106.383301,16.9868164 106.197754,17.190918 C105.690592,17.7599284 105.041178,18.0444336 104.249512,18.0444336 C103.74235,18.0444336 103.26766,17.9130046 102.825439,17.6501465 C102.383219,17.3872884 102.056966,17.0424805 101.84668,16.6157227 C101.599284,16.1085612 101.472493,15.3818359 101.466309,14.4355469 L101.466309,14.4355469 L108.285156,14.4355469 C108.260417,12.4563802 107.725423,11.0493164 106.680176,10.2143555 C105.981283,9.65771484 105.155599,9.37939453 104.203125,9.37939453 C103.015625,9.37939453 102.019857,9.78759766 101.21582,10.6040039 C100.306641,11.5317383 99.8520508,12.7841797 99.8520508,14.3613281 C99.8520508,15.9570312 100.312826,17.2063802 101.234375,18.109375 C102.007487,18.8701172 102.981608,19.2504883 104.156738,19.2504883 Z M106.689453,13.359375 L101.540527,13.359375 C101.583822,12.9078776 101.653402,12.5476074 101.749268,12.2785645 C101.845133,12.0095215 101.99821,11.7420247 102.208496,11.4760742 C102.728027,10.8204753 103.402181,10.4926758 104.230957,10.4926758 C105.053548,10.4926758 105.696777,10.8235677 106.160645,11.4853516 C106.352376,11.7636719 106.485352,12.0358073 106.55957,12.3017578 C106.633789,12.5677083 106.677083,12.9202474 106.689453,13.359375 L106.689453,13.359375 Z M116.671875,22.1635742 L116.671875,17.5712891 C117.067708,18.1835938 117.475911,18.6165365 117.896484,18.8701172 C118.317057,19.1236979 118.833496,19.2504883 119.445801,19.2504883 C120.534342,19.2504883 121.412598,18.8268229 122.080566,17.9794922 C122.816569,17.0455729 123.18457,15.824056 123.18457,14.3149414 C123.18457,12.6883138 122.757812,11.3956706 121.904297,10.4370117 C121.273438,9.73193359 120.463216,9.37939453 119.473633,9.37939453 C118.756185,9.37939453 118.13151,9.59277344 117.599609,10.0195312 C117.209961,10.328776 116.851237,10.8081055 116.523438,11.4575195 L116.523438,11.4575195 L116.523438,9.62988281 L115.215332,9.62988281 L115.215332,22.1635742 L116.671875,22.1635742 Z M119.158203,18.0444336 C118.465495,18.0444336 117.85319,17.7259115 117.321289,17.0888672 C116.987305,16.686849 116.770833,16.1920573 116.671875,15.6044922 L116.671875,15.6044922 L116.671875,12.9697266 C116.863607,12.2460938 117.180583,11.6770833 117.622803,11.2626953 C118.065023,10.8483073 118.576823,10.6411133 119.158203,10.6411133 C119.894206,10.6411133 120.478678,10.9596354 120.911621,11.5966797 C121.363118,12.2522786 121.588867,13.180013 121.588867,14.3798828 C121.588867,15.6230469 121.353841,16.5538737 120.883789,17.1723633 C120.685872,17.4321289 120.427653,17.6424154 120.109131,17.8032227 C119.790609,17.9640299 119.473633,18.0444336 119.158203,18.0444336 Z M126.821289,19 L126.821289,14.0458984 C126.846029,13.3902995 126.975911,12.8367513 127.210938,12.3852539 C127.755208,11.3152669 128.571615,10.7802734 129.660156,10.7802734 C129.75293,10.7802734 129.858073,10.7833659 129.975586,10.7895508 L129.975586,10.7895508 L129.975586,9.39794922 C129.746745,9.37320964 129.570475,9.36083984 129.446777,9.36083984 C128.67985,9.36083984 128.061361,9.63606771 127.591309,10.1865234 C127.288249,10.5452474 126.972819,11.0926107 126.64502,11.8286133 L126.64502,11.8286133 L126.64502,9.62988281 L125.364746,9.62988281 L125.364746,19 L126.821289,19 Z M134.985352,19.2504883 C136.389323,19.2504883 137.499512,18.6969401 138.315918,17.5898438 C138.977702,16.6992188 139.308594,15.6385091 139.308594,14.4077148 C139.308594,13.4676107 139.155518,12.6280111 138.849365,11.888916 C138.543213,11.149821 138.105632,10.5668945 137.536621,10.1401367 C136.850098,9.63297526 136.046061,9.37939453 135.124512,9.37939453 C133.831868,9.37939453 132.764974,9.89583333 131.923828,10.9287109 C131.237305,11.7822266 130.894043,12.8986003 130.894043,14.277832 C130.894043,15.5890299 131.20638,16.7054036 131.831055,17.6269531 C132.573242,18.7093099 133.624674,19.2504883 134.985352,19.2504883 Z M135.09668,18.0444336 C134.694661,18.0444336 134.311198,17.9470215 133.946289,17.7521973 C133.58138,17.557373 133.296875,17.2960612 133.092773,16.9682617 C132.690755,16.3188477 132.489746,15.4189453 132.489746,14.2685547 C132.489746,13.1119792 132.706217,12.2244466 133.13916,11.605957 C133.349447,11.2967122 133.630859,11.0493164 133.983398,10.8637695 C134.335938,10.6782227 134.700846,10.5854492 135.078125,10.5854492 C135.455404,10.5854492 135.820312,10.6766764 136.172852,10.8591309 C136.525391,11.0415853 136.816081,11.2874349 137.044922,11.5966797 C137.490234,12.2089844 137.712891,13.1212565 137.712891,14.3334961 C137.712891,15.4900716 137.480957,16.3977051 137.01709,17.0563965 C136.553223,17.7150879 135.913086,18.0444336 135.09668,18.0444336 Z M144.708008,19.2504883 C145.74707,19.2504883 146.594401,18.9134115 147.25,18.2392578 C147.55306,17.930013 147.781901,17.6130371 147.936523,17.2883301 C148.091146,16.963623 148.230306,16.5167643 148.354004,15.9477539 L148.354004,15.9477539 L147.027344,15.7158203 C146.711914,17.2682292 145.951172,18.0444336 144.745117,18.0444336 C144.336914,18.0444336 143.961182,17.9408366 143.61792,17.7336426 C143.274658,17.5264486 143.010254,17.2434896 142.824707,16.8847656 C142.465983,16.1858724 142.286621,15.319987 142.286621,14.2871094 C142.286621,13.3098958 142.462891,12.4842122 142.81543,11.8100586 C143.236003,10.9936523 143.888509,10.5854492 144.772949,10.5854492 C146.034668,10.5854492 146.786133,11.3554688 147.027344,12.8955078 L147.027344,12.8955078 L148.354004,12.6450195 C148.162272,11.5874023 147.7618,10.7787272 147.152588,10.2189941 C146.543376,9.65926107 145.756348,9.37939453 144.791504,9.37939453 C143.628743,9.37939453 142.694824,9.78450521 141.989746,10.5947266 C141.17334,11.5410156 140.765137,12.7872721 140.765137,14.3334961 C140.765137,15.8859049 141.179525,17.1414388 142.008301,18.1000977 C142.6639,18.8670247 143.563802,19.2504883 144.708008,19.2504883 Z M153.92041,19.2504883 C154.984212,19.2504883 155.905762,18.9226888 156.685059,18.2670898 C156.994303,18.0073242 157.235514,17.750651 157.408691,17.4970703 C157.581868,17.2434896 157.742676,16.9064128 157.891113,16.4858398 L157.891113,16.4858398 L156.536621,16.2075195 C156.338704,16.6590169 156.146973,16.9868164 155.961426,17.190918 C155.454264,17.7599284 154.80485,18.0444336 154.013184,18.0444336 C153.506022,18.0444336 153.031331,17.9130046 152.589111,17.6501465 C152.146891,17.3872884 151.820638,17.0424805 151.610352,16.6157227 C151.362956,16.1085612 151.236165,15.3818359 151.22998,14.4355469 L151.22998,14.4355469 L158.048828,14.4355469 C158.024089,12.4563802 157.489095,11.0493164 156.443848,10.2143555 C155.744954,9.65771484 154.919271,9.37939453 153.966797,9.37939453 C152.779297,9.37939453 151.783529,9.78759766 150.979492,10.6040039 C150.070312,11.5317383 149.615723,12.7841797 149.615723,14.3613281 C149.615723,15.9570312 150.076497,17.2063802 150.998047,18.109375 C151.771159,18.8701172 152.74528,19.2504883 153.92041,19.2504883 Z M156.453125,13.359375 L151.304199,13.359375 C151.347493,12.9078776 151.417074,12.5476074 151.512939,12.2785645 C151.608805,12.0095215 151.761882,11.7420247 151.972168,11.4760742 C152.491699,10.8204753 153.165853,10.4926758 153.994629,10.4926758 C154.81722,10.4926758 155.460449,10.8235677 155.924316,11.4853516 C156.116048,11.7636719 156.249023,12.0358073 156.323242,12.3017578 C156.397461,12.5677083 156.440755,12.9202474 156.453125,13.359375 L156.453125,13.359375 Z M163.123535,19.2504883 C164.409993,19.2504883 165.421224,18.9165039 166.157227,18.2485352 C166.707682,17.7537435 166.98291,17.129069 166.98291,16.3745117 C166.98291,15.4591471 166.630371,14.754069 165.925293,14.2592773 C165.50472,13.9624023 164.901693,13.7428385 164.116211,13.6005859 L164.116211,13.6005859 L162.288574,13.2758789 C161.317546,13.1027018 160.832031,12.6697591 160.832031,11.9770508 C160.832031,11.5564779 161.016032,11.219401 161.384033,10.9658203 C161.752035,10.7122396 162.239095,10.5854492 162.845215,10.5854492 C163.556478,10.5854492 164.134766,10.7648112 164.580078,11.1235352 C164.833659,11.3276367 165.05013,11.6368815 165.229492,12.0512695 L165.229492,12.0512695 L166.556152,11.7636719 C166.092285,10.1741536 164.861491,9.37939453 162.86377,9.37939453 C161.713379,9.37939453 160.816569,9.67008464 160.17334,10.2514648 C159.616699,10.7586263 159.338379,11.3894857 159.338379,12.144043 C159.338379,12.5275065 159.420329,12.8924154 159.584229,13.2387695 C159.748128,13.5851237 159.972331,13.8603516 160.256836,14.0644531 C160.714518,14.3860677 161.252604,14.6056315 161.871094,14.7231445 L161.871094,14.7231445 L163.847168,15.0942383 C164.92334,15.2921549 165.461426,15.7714844 165.461426,16.5322266 C165.461426,16.9404297 165.291341,17.280599 164.951172,17.5527344 C164.542969,17.8867188 163.973958,18.0537109 163.244141,18.0537109 C162.291667,18.0537109 161.527832,17.8186849 160.952637,17.3486328 C160.680501,17.1197917 160.479492,16.7641602 160.349609,16.2817383 L160.349609,16.2817383 L158.958008,16.5693359 C159.168294,17.2867839 159.489909,17.8341471 159.922852,18.2114258 C160.726888,18.9041341 161.793783,19.2504883 163.123535,19.2504883 Z M171.937012,19.2504883 C173.22347,19.2504883 174.234701,18.9165039 174.970703,18.2485352 C175.521159,17.7537435 175.796387,17.129069 175.796387,16.3745117 C175.796387,15.4591471 175.443848,14.754069 174.73877,14.2592773 C174.318197,13.9624023 173.715169,13.7428385 172.929688,13.6005859 L172.929688,13.6005859 L171.102051,13.2758789 C170.131022,13.1027018 169.645508,12.6697591 169.645508,11.9770508 C169.645508,11.5564779 169.829508,11.219401 170.19751,10.9658203 C170.565511,10.7122396 171.052572,10.5854492 171.658691,10.5854492 C172.369954,10.5854492 172.948242,10.7648112 173.393555,11.1235352 C173.647135,11.3276367 173.863607,11.6368815 174.042969,12.0512695 L174.042969,12.0512695 L175.369629,11.7636719 C174.905762,10.1741536 173.674967,9.37939453 171.677246,9.37939453 C170.526855,9.37939453 169.630046,9.67008464 168.986816,10.2514648 C168.430176,10.7586263 168.151855,11.3894857 168.151855,12.144043 C168.151855,12.5275065 168.233805,12.8924154 168.397705,13.2387695 C168.561605,13.5851237 168.785807,13.8603516 169.070312,14.0644531 C169.527995,14.3860677 170.066081,14.6056315 170.68457,14.7231445 L170.68457,14.7231445 L172.660645,15.0942383 C173.736816,15.2921549 174.274902,15.7714844 174.274902,16.5322266 C174.274902,16.9404297 174.104818,17.280599 173.764648,17.5527344 C173.356445,17.8867188 172.787435,18.0537109 172.057617,18.0537109 C171.105143,18.0537109 170.341309,17.8186849 169.766113,17.3486328 C169.493978,17.1197917 169.292969,16.7641602 169.163086,16.2817383 L169.163086,16.2817383 L167.771484,16.5693359 C167.981771,17.2867839 168.303385,17.8341471 168.736328,18.2114258 C169.540365,18.9041341 170.607259,19.2504883 171.937012,19.2504883 Z M185.52832,19 L187.439453,12.0419922 L189.536133,19 L190.714355,19 L193.414062,9.62988281 L192.23584,9.62988281 L190.129883,16.6435547 L188.023926,9.62988281 L186.957031,9.62988281 L185.008789,16.6157227 L182.977051,9.62988281 L181.51123,9.62988281 L184.322266,19 L185.52832,19 Z M198.59082,19.2504883 C199.994792,19.2504883 201.10498,18.6969401 201.921387,17.5898438 C202.583171,16.6992188 202.914062,15.6385091 202.914062,14.4077148 C202.914062,13.4676107 202.760986,12.6280111 202.454834,11.888916 C202.148682,11.149821 201.7111,10.5668945 201.14209,10.1401367 C200.455566,9.63297526 199.65153,9.37939453 198.72998,9.37939453 C197.437337,9.37939453 196.370443,9.89583333 195.529297,10.9287109 C194.842773,11.7822266 194.499512,12.8986003 194.499512,14.277832 C194.499512,15.5890299 194.811849,16.7054036 195.436523,17.6269531 C196.178711,18.7093099 197.230143,19.2504883 198.59082,19.2504883 Z M198.702148,18.0444336 C198.30013,18.0444336 197.916667,17.9470215 197.551758,17.7521973 C197.186849,17.557373 196.902344,17.2960612 196.698242,16.9682617 C196.296224,16.3188477 196.095215,15.4189453 196.095215,14.2685547 C196.095215,13.1119792 196.311686,12.2244466 196.744629,11.605957 C196.954915,11.2967122 197.236328,11.0493164 197.588867,10.8637695 C197.941406,10.6782227 198.306315,10.5854492 198.683594,10.5854492 C199.060872,10.5854492 199.425781,10.6766764 199.77832,10.8591309 C200.130859,11.0415853 200.421549,11.2874349 200.650391,11.5966797 C201.095703,12.2089844 201.318359,13.1212565 201.318359,14.3334961 C201.318359,15.4900716 201.086426,16.3977051 200.622559,17.0563965 C200.158691,17.7150879 199.518555,18.0444336 198.702148,18.0444336 Z M206.550781,19 L206.550781,14.0458984 C206.575521,13.3902995 206.705404,12.8367513 206.94043,12.3852539 C207.484701,11.3152669 208.301107,10.7802734 209.389648,10.7802734 C209.482422,10.7802734 209.587565,10.7833659 209.705078,10.7895508 L209.705078,10.7895508 L209.705078,9.39794922 C209.476237,9.37320964 209.299967,9.36083984 209.17627,9.36083984 C208.409342,9.36083984 207.790853,9.63606771 207.320801,10.1865234 C207.017741,10.5452474 206.702311,11.0926107 206.374512,11.8286133 L206.374512,11.8286133 L206.374512,9.62988281 L205.094238,9.62988281 L205.094238,19 L206.550781,19 Z M212.803711,19 L212.803711,16.1054688 L214.835449,13.7675781 L217.572266,19 L219.084473,19 L215.781738,12.9326172 L218.713379,9.62988281 L217.154785,9.62988281 L212.803711,14.4448242 L212.803711,6.33642578 L211.347168,6.33642578 L211.347168,19 L212.803711,19 Z" id="Howdoestheprocesswork" fill="#001D49" fill-rule="nonzero"></path>
        </g>
    </g>
</svg>